<?xml version="1.0" encoding="utf-8"?>
<!-- Generator: Adobe Illustrator 24.3.0, SVG Export Plug-In . SVG Version: 6.00 Build 0)  -->
<svg version="1.1" id="Слой_1" xmlns="http://www.w3.org/2000/svg" xmlns:xlink="http://www.w3.org/1999/xlink" x="0px" y="0px"
	 viewBox="0 0 1465 1465" style="enable-background:new 0 0 1465 1465;" xml:space="preserve">
<style type="text/css">
	.st0{fill-rule:evenodd;clip-rule:evenodd;}
</style>
<g id="Слой_x0020_1">
	<path class="st0" d="M1305,184L107,654c-41,14-38,69,3,81l305,89l112,363c12,37,61,49,87,20l158-161l308,227c38,26,92,6,101-40
		l204-977C1397,207,1348,167,1305,184L1305,184z M1155,403L596,896c-5,3-8,11-8,17l-21,190c-2,6-11,9-11,3l-89-285c-3-12,0-26,11-35
		l660-406C1152,372,1167,392,1155,403L1155,403z"/>
</g>
</svg>
